<?xml version="1.0" encoding="UTF-8"?>
<svg width="288px" height="72px" viewBox="0 0 288 72" version="1.1" xmlns="http://www.w3.org/2000/svg" xmlns:xlink="http://www.w3.org/1999/xlink">
    <!-- Generator: Sketch 48.1 (47250) - http://www.bohemiancoding.com/sketch -->
    <title>logo copy 2</title>
    <desc>Created with Sketch.</desc>
    <defs>
        <linearGradient x1="100%" y1="50%" x2="0%" y2="50%" id="linearGradient-1">
            <stop stop-color="#00A388" offset="0%"></stop>
            <stop stop-color="#0DC5A7" offset="100%"></stop>
        </linearGradient>
    </defs>
    <g id="Page-1" stroke="none" stroke-width="1" fill="none" fill-rule="evenodd">
        <g id="logo-copy-2">
            <path d="M16.3014869,12 L21.9641113,26.6726942 C22.289524,32.5492248 20.4019825,35.48749 16.3014869,35.48749 C10.1507434,35.48749 4,51.6762312 4,43.8749651 C4,38.6741211 8.10049563,28.0491327 16.3014869,12 Z" id="Triangle" fill="url(#linearGradient-1)"></path>
            <path d="M41.9852177,12 C49.9950726,30.8197525 54,41.5577683 54,44.2140474 C54,48.198466 47.9926088,35.7373473 41.9852177,35.7373473 C40.8209968,35.7373473 39.6567759,35.9761213 38.492555,36.4536693 C36.5987506,37.2304828 35.7841085,34.3849893 36.0486286,27.9171889 L41.9852177,12 Z" id="Triangle-Copy" fill="url(#linearGradient-1)"></path>
            <path d="M29,14 C44.3333333,39.2043504 52,53.5852362 52,57.1426575 C52,62.4787895 40.5,45.7902384 29,45.7902384 C17.5,45.7902384 6,67.6516921 6,57.1426575 C6,50.1366345 13.6666667,35.7557486 29,14 Z M29.5,26 C27.6666667,26 25.8333333,30.3333333 24,39 C26.4937703,37.8931549 28.3271037,37.3397324 29.5,37.3397324 C30.6728963,37.3397324 32.5062297,37.8931549 35,39 C33.1666667,30.3333333 31.3333333,26 29.5,26 Z" id="Combined-Shape" fill="url(#linearGradient-1)"></path>
            <path d="M75.4791175,30.5512367 L75.4791175,51.3286219 L68.6278373,51.3286219 L68.6278373,30.5512367 L63,30.5512367 L63,24.6855124 L81.1069547,24.6855124 L81.1069547,30.5512367 L75.4791175,30.5512367 Z M86.4401671,42.1766784 C86.4401671,42.7891668 86.5508584,43.3486429 86.7722444,43.8551237 C86.9936304,44.3616044 87.2849234,44.8032961 87.6461322,45.180212 C88.0073409,45.5571279 88.4384546,45.851589 88.9394861,46.0636042 C89.4405176,46.2756194 89.9706709,46.3816254 90.5299619,46.3816254 C91.0892528,46.3816254 91.6194061,46.2756194 92.1204376,46.0636042 C92.6214691,45.851589 93.0525828,45.5571279 93.4137915,45.180212 C93.7750003,44.8032961 94.0662933,44.3616044 94.2876793,43.8551237 C94.5090653,43.3486429 94.6197567,42.8009452 94.6197567,42.2120141 C94.6197567,41.6466403 94.5090653,41.110721 94.2876793,40.6042403 C94.0662933,40.0977595 93.7750003,39.6560678 93.4137915,39.2791519 C93.0525828,38.902236 92.6214691,38.6077749 92.1204376,38.3957597 C91.6194061,38.1837445 91.0892528,38.0777385 90.5299619,38.0777385 C89.9706709,38.0777385 89.4405176,38.1837445 88.9394861,38.3957597 C88.4384546,38.6077749 88.0073409,38.902236 87.6461322,39.2791519 C87.2849234,39.6560678 86.9936304,40.0918703 86.7722444,40.5865724 C86.5508584,41.0812746 86.4401671,41.6113046 86.4401671,42.1766784 Z M79.7636644,42.1060071 C79.7636644,40.7632442 80.031654,39.5088398 80.5676412,38.3427562 C81.1036284,37.1766726 81.8493385,36.1637263 82.8047939,35.3038869 C83.7602493,34.4440475 84.8962921,33.7667869 86.2129562,33.2720848 C87.5296204,32.7773827 88.9686079,32.5300353 90.5299619,32.5300353 C92.068012,32.5300353 93.4953478,32.7714935 94.812012,33.254417 C96.1286761,33.7373405 97.2705447,34.4087118 98.2376521,35.2685512 C99.2047594,36.1283906 99.9562953,37.1531154 100.492283,38.3427562 C101.02827,39.532397 101.296259,40.8456936 101.296259,42.2826855 C101.296259,43.7196774 101.022444,45.032974 100.474805,46.2226148 C99.9271657,47.4122557 99.1756297,48.4369804 98.2201743,49.2968198 C97.2647189,50.1566592 96.1170244,50.8221413 94.7770565,51.2932862 C93.4370885,51.7644311 91.9864493,52 90.4250953,52 C88.8870451,52 87.4655352,51.7644311 86.160523,51.2932862 C84.8555107,50.8221413 83.7311197,50.15077 82.7873161,49.2791519 C81.8435126,48.4075339 81.1036284,47.3651415 80.5676412,46.1519435 C80.031654,44.9387454 79.7636644,43.5901134 79.7636644,42.1060071 Z M109.460868,22 L109.460868,39.7385159 L116.102415,33.2014134 L124.771382,33.2014134 L115.787815,41.5759717 L125.295715,51.3286219 L116.417015,51.3286219 L109.460868,43.9434629 L109.460868,51.3286219 L103.13392,51.3286219 L103.13392,22 L109.460868,22 Z M137.759851,39.6325088 C137.550117,38.7373336 137.119003,38.0188484 136.466497,37.4770318 C135.813991,36.9352152 135.021674,36.664311 134.089522,36.664311 C133.110763,36.664311 132.31262,36.9234367 131.69507,37.4416961 C131.077519,37.9599555 130.687187,38.6902191 130.52406,39.6325088 L137.759851,39.6325088 Z M130.349283,43.3427562 C130.349283,46.0989537 131.630972,47.4770318 134.194389,47.4770318 C135.569313,47.4770318 136.606316,46.9116664 137.305429,45.7809187 L143.422644,45.7809187 C142.187543,49.9269936 139.099837,52 134.159433,52 C132.644687,52 131.258132,51.7703203 129.999728,51.3109541 C128.741323,50.8515878 127.663539,50.1978841 126.766343,49.3498233 C125.869147,48.5017625 125.17587,47.4888163 124.68649,46.3109541 C124.19711,45.1330919 123.952424,43.813906 123.952424,42.3533569 C123.952424,40.8456933 124.185459,39.4852829 124.651534,38.2720848 C125.11761,37.0588867 125.781758,36.0282728 126.643999,35.180212 C127.506239,34.3321512 128.549068,33.6784475 129.772517,33.2190813 C130.995966,32.759715 132.376695,32.5300353 133.914745,32.5300353 C135.429491,32.5300353 136.792743,32.759715 138.00454,33.2190813 C139.216337,33.6784475 140.241688,34.3439297 141.080625,35.2155477 C141.919561,36.0871657 142.560406,37.153115 143.003178,38.4134276 C143.44595,39.6737401 143.667332,41.0930428 143.667332,42.6713781 L143.667332,43.3427562 L130.349283,43.3427562 Z M145.470038,33.2014134 L151.796986,33.2014134 L151.796986,35.4982332 C152.659226,34.4381572 153.533105,33.7255613 154.418649,33.360424 C155.304193,32.9952867 156.341196,32.8127208 157.529689,32.8127208 C158.788094,32.8127208 159.865878,33.0188436 160.763074,33.4310954 C161.66027,33.8433472 162.423458,34.4263802 163.05266,35.180212 C163.565344,35.7927004 163.914895,36.4758502 164.101326,37.229682 C164.287756,37.9835138 164.38097,38.8433403 164.38097,39.8091873 L164.38097,51.3286219 L158.054022,51.3286219 L158.054022,42.1766784 C158.054022,41.2815032 157.989938,40.5571288 157.861767,40.0035336 C157.733596,39.4499383 157.506387,39.0082466 157.180134,38.6784452 C156.900489,38.3957583 156.585892,38.1955247 156.236336,38.0777385 C155.886779,37.9599523 155.513924,37.9010601 155.117759,37.9010601 C154.045785,37.9010601 153.224339,38.2249673 152.653396,38.8727915 C152.082453,39.5206157 151.796986,40.4452237 151.796986,41.6466431 L151.796986,51.3286219 L145.470038,51.3286219 L145.470038,33.2014134 Z M176.375704,51.3286219 L180.850009,24.6855124 L187.631378,24.6855124 L192.90966,38.8904594 L198.152987,24.6855124 L204.934356,24.6855124 L209.408662,51.3286219 L202.592337,51.3286219 L200.320229,35.9929329 L194.098148,51.3286219 L191.371618,51.3286219 L185.464137,35.9929329 L183.192028,51.3286219 L176.375704,51.3286219 Z M223.515707,39.6325088 C223.305973,38.7373336 222.874859,38.0188484 222.222353,37.4770318 C221.569847,36.9352152 220.77753,36.664311 219.845379,36.664311 C218.866619,36.664311 218.068477,36.9234367 217.450926,37.4416961 C216.833376,37.9599555 216.443043,38.6902191 216.279916,39.6325088 L223.515707,39.6325088 Z M216.105139,43.3427562 C216.105139,46.0989537 217.386828,47.4770318 219.950245,47.4770318 C221.325169,47.4770318 222.362172,46.9116664 223.061286,45.7809187 L229.1785,45.7809187 C227.943399,49.9269936 224.855693,52 219.91529,52 C218.400543,52 217.013988,51.7703203 215.755584,51.3109541 C214.497179,50.8515878 213.419395,50.1978841 212.522199,49.3498233 C211.625003,48.5017625 210.931726,47.4888163 210.442346,46.3109541 C209.952967,45.1330919 209.70828,43.813906 209.70828,42.3533569 C209.70828,40.8456933 209.941315,39.4852829 210.407391,38.2720848 C210.873466,37.0588867 211.537614,36.0282728 212.399855,35.180212 C213.262095,34.3321512 214.304924,33.6784475 215.528373,33.2190813 C216.751822,32.759715 218.132551,32.5300353 219.670601,32.5300353 C221.185347,32.5300353 222.548599,32.759715 223.760396,33.2190813 C224.972193,33.6784475 225.997544,34.3439297 226.836481,35.2155477 C227.675417,36.0871657 228.316262,37.153115 228.759034,38.4134276 C229.201806,39.6737401 229.423189,41.0930428 229.423189,42.6713781 L229.423189,43.3427562 L216.105139,43.3427562 Z M237.09842,42.2120141 C237.09842,42.8009452 237.203286,43.3486429 237.41302,43.8551237 C237.622754,44.3616044 237.908221,44.8032961 238.26943,45.180212 C238.630639,45.5571279 239.061752,45.851589 239.562784,46.0636042 C240.063815,46.2756194 240.60562,46.3816254 241.188215,46.3816254 C241.747506,46.3816254 242.277659,46.2756194 242.778691,46.0636042 C243.279722,45.851589 243.710836,45.5571279 244.072045,45.180212 C244.433253,44.8032961 244.724546,44.3674936 244.945932,43.8727915 C245.167318,43.3780894 245.27801,42.8480594 245.27801,42.2826855 C245.27801,41.7173117 245.167318,41.1813924 244.945932,40.6749117 C244.724546,40.1684309 244.433253,39.7267392 244.072045,39.3498233 C243.710836,38.9729074 243.279722,38.6784463 242.778691,38.4664311 C242.277659,38.2544159 241.747506,38.1484099 241.188215,38.1484099 C240.628924,38.1484099 240.098771,38.2544159 239.597739,38.4664311 C239.096708,38.6784463 238.665594,38.9729074 238.304385,39.3498233 C237.943177,39.7267392 237.651884,40.1566525 237.430498,40.639576 C237.209112,41.1224995 237.09842,41.6466403 237.09842,42.2120141 Z M245.068277,22 L251.43018,22 L251.43018,51.3286219 L245.068277,51.3286219 L245.068277,49.3144876 C243.716657,51.0341664 241.887337,51.8939929 239.580261,51.8939929 C238.275249,51.8939929 237.075122,51.6466456 235.979844,51.1519435 C234.884566,50.6572413 233.929125,49.9740915 233.113492,49.1024735 C232.297859,48.2308555 231.66284,47.2061307 231.208417,46.0282686 C230.753993,44.8504064 230.526784,43.5783343 230.526784,42.2120141 C230.526784,40.9163657 230.742341,39.6855182 231.173461,38.5194346 C231.604581,37.3533511 232.216297,36.3345155 233.008625,35.4628975 C233.800954,34.5912795 234.75057,33.9022405 235.8575,33.3957597 C236.96443,32.889279 238.182034,32.6360424 239.51035,32.6360424 C241.747514,32.6360424 243.600138,33.4251982 245.068277,35.0035336 L245.068277,22 Z M260.258943,33.2014134 L260.258943,51.3286219 L253.931996,51.3286219 L253.931996,33.2014134 L260.258943,33.2014134 Z M253.51253,26.2402827 C253.51253,25.7455806 253.605743,25.280332 253.792174,24.844523 C253.978604,24.408714 254.234942,24.0259145 254.561195,23.6961131 C254.887448,23.3663117 255.266129,23.1071859 255.697249,22.9187279 C256.128369,22.73027 256.588612,22.6360424 257.077992,22.6360424 C257.567371,22.6360424 258.027614,22.73027 258.458734,22.9187279 C258.889854,23.1071859 259.268535,23.3663117 259.594788,23.6961131 C259.921042,24.0259145 260.177379,24.408714 260.36381,24.844523 C260.55024,25.280332 260.643454,25.7455806 260.643454,26.2402827 C260.643454,26.7349848 260.55024,27.2002334 260.36381,27.6360424 C260.177379,28.0718514 259.921042,28.4546509 259.594788,28.7844523 C259.268535,29.1142537 258.889854,29.3733795 258.458734,29.5618375 C258.027614,29.7502954 257.567371,29.844523 257.077992,29.844523 C256.588612,29.844523 256.128369,29.7502954 255.697249,29.5618375 C255.266129,29.3733795 254.887448,29.1142537 254.561195,28.7844523 C254.234942,28.4546509 253.978604,28.0718514 253.792174,27.6360424 C253.605743,27.2002334 253.51253,26.7349848 253.51253,26.2402827 Z M268.66824,42.2120141 C268.66824,42.8009452 268.773106,43.3486429 268.98284,43.8551237 C269.192574,44.3616044 269.478041,44.8032961 269.83925,45.180212 C270.200459,45.5571279 270.631572,45.851589 271.132604,46.0636042 C271.633635,46.2756194 272.17544,46.3816254 272.758035,46.3816254 C273.317326,46.3816254 273.84748,46.2756194 274.348511,46.0636042 C274.849543,45.851589 275.280656,45.5571279 275.641865,45.180212 C276.003074,44.8032961 276.294367,44.3674936 276.515753,43.8727915 C276.737139,43.3780894 276.84783,42.8480594 276.84783,42.2826855 C276.84783,41.7173117 276.737139,41.1813924 276.515753,40.6749117 C276.294367,40.1684309 276.003074,39.7267392 275.641865,39.3498233 C275.280656,38.9729074 274.849543,38.6784463 274.348511,38.4664311 C273.84748,38.2544159 273.317326,38.1484099 272.758035,38.1484099 C272.17544,38.1484099 271.633635,38.2544159 271.132604,38.4664311 C270.631572,38.6784463 270.200459,38.9729074 269.83925,39.3498233 C269.478041,39.7267392 269.192574,40.1566525 268.98284,40.639576 C268.773106,41.1224995 268.66824,41.6466403 268.66824,42.2120141 Z M276.638097,33.2014134 L283,33.2014134 L283,51.3286219 L276.638097,51.3286219 L276.638097,49.3144876 C275.286477,51.0341664 273.457157,51.8939929 271.150082,51.8939929 C269.845069,51.8939929 268.644942,51.6525348 267.549664,51.1696113 C266.454386,50.6866878 265.498945,50.0094272 264.683312,49.1378092 C263.86768,48.2661912 263.232661,47.2414664 262.778237,46.0636042 C262.323813,44.885742 262.096604,43.6018915 262.096604,42.2120141 C262.096604,40.9163657 262.317987,39.6855182 262.760759,38.5194346 C263.203531,37.3533511 263.821072,36.3345155 264.613401,35.4628975 C265.40573,34.5912795 266.349519,33.9022405 267.444798,33.3957597 C268.540076,32.889279 269.751855,32.6360424 271.080171,32.6360424 C273.317335,32.6360424 275.169958,33.4251982 276.638097,35.0035336 L276.638097,33.2014134 Z" id="Token-Media" fill="#FFFFFF"></path>
        </g>
    </g>
</svg>