<?xml version="1.0" encoding="UTF-8"?>
<svg width="298px" height="72px" viewBox="0 0 298 72" version="1.1" xmlns="http://www.w3.org/2000/svg" xmlns:xlink="http://www.w3.org/1999/xlink">
    <!-- Generator: Sketch 48.1 (47250) - http://www.bohemiancoding.com/sketch -->
    <title>logo copy</title>
    <desc>Created with Sketch.</desc>
    <defs>
        <linearGradient x1="100%" y1="50%" x2="0%" y2="50%" id="linearGradient-1">
            <stop stop-color="#00A388" offset="0%"></stop>
            <stop stop-color="#0DC5A7" offset="100%"></stop>
        </linearGradient>
    </defs>
    <g id="Page-1" stroke="none" stroke-width="1" fill="none" fill-rule="evenodd">
        <g id="logo-copy">
            <path d="M25,12 L37,43.8749651 C33,38.2833151 29,35.48749 25,35.48749 C19,35.48749 13,51.6762312 13,43.8749651 C13,38.6741211 17,28.0491327 25,12 Z" id="Triangle" fill="url(#linearGradient-1)"></path>
            <path d="M51,12 C59,30.8197525 63,41.5577683 63,44.2140474 C63,48.198466 57,35.7373473 51,35.7373473 C47,35.7373473 43,38.562914 39,44.2140474 L51,12 Z" id="Triangle-Copy" fill="url(#linearGradient-1)"></path>
            <path d="M38,14 C53.3333333,39.2043504 61,53.5852362 61,57.1426575 C61,62.4787895 49.5,45.7902384 38,45.7902384 C26.5,45.7902384 15,67.6516921 15,57.1426575 C15,50.1366345 22.6666667,35.7557486 38,14 Z" id="Triangle-Copy-2" fill="url(#linearGradient-1)"></path>
            <path d="M38.5,26 C40.3333333,26 42.1666667,30.3333333 44,39 C41.5062297,37.8931549 39.6728963,37.3397324 38.5,37.3397324 C37.3271037,37.3397324 35.4937703,37.8931549 33,39 C34.8333333,30.3333333 36.6666667,26 38.5,26 Z" id="Triangle-2" fill="#FFFFFF"></path>
            <path d="M84.775,30.42 L84.775,51 L77.915,51 L77.915,30.42 L72.28,30.42 L72.28,24.61 L90.41,24.61 L90.41,30.42 L84.775,30.42 Z M95.75,41.935 C95.75,42.5416697 95.8608323,43.0958308 96.0825,43.5975 C96.3041678,44.0991692 96.5958316,44.5366648 96.9575,44.91 C97.3191685,45.2833352 97.7508309,45.574999 98.2525,45.785 C98.7541692,45.995001 99.2849972,46.1 99.845,46.1 C100.405003,46.1 100.935831,45.995001 101.4375,45.785 C101.939169,45.574999 102.370832,45.2833352 102.7325,44.91 C103.094169,44.5366648 103.385832,44.0991692 103.6075,43.5975 C103.829168,43.0958308 103.94,42.5533363 103.94,41.97 C103.94,41.4099972 103.829168,40.8791692 103.6075,40.3775 C103.385832,39.8758308 103.094169,39.4383352 102.7325,39.065 C102.370832,38.6916648 101.939169,38.4000011 101.4375,38.19 C100.935831,37.9799989 100.405003,37.875 99.845,37.875 C99.2849972,37.875 98.7541692,37.9799989 98.2525,38.19 C97.7508309,38.4000011 97.3191685,38.6916648 96.9575,39.065 C96.5958316,39.4383352 96.3041678,39.8699976 96.0825,40.36 C95.8608323,40.8500025 95.75,41.3749972 95.75,41.935 Z M89.065,41.865 C89.065,40.5349934 89.3333307,39.2925058 89.87,38.1375 C90.4066694,36.9824942 91.1533286,35.9791709 92.11,35.1275 C93.0666715,34.2758291 94.2041601,33.6050025 95.5225,33.115 C96.84084,32.6249975 98.2816589,32.38 99.845,32.38 C101.385008,32.38 102.81416,32.6191643 104.1325,33.0975 C105.45084,33.5758357 106.594162,34.2408291 107.5625,35.0925 C108.530838,35.9441709 109.283331,36.9591608 109.82,38.1375 C110.356669,39.3158392 110.625,40.6166596 110.625,42.04 C110.625,43.4633404 110.350836,44.7641608 109.8025,45.9425 C109.254164,47.1208392 108.501671,48.1358291 107.545,48.9875 C106.588329,49.8391709 105.439173,50.498331 104.0975,50.965 C102.755827,51.431669 101.303341,51.665 99.74,51.665 C98.1999923,51.665 96.7766732,51.431669 95.47,50.965 C94.1633268,50.498331 93.0375048,49.8333377 92.0925,48.97 C91.1474953,48.1066624 90.4066694,47.0741727 89.87,45.8725 C89.3333307,44.6708273 89.065,43.3350073 89.065,41.865 Z M118.8,21.95 L118.8,39.52 L125.45,33.045 L134.13,33.045 L125.135,41.34 L134.655,51 L125.765,51 L118.8,43.685 L118.8,51 L112.465,51 L112.465,21.95 L118.8,21.95 Z M147.135,39.415 C146.924999,38.5283289 146.493337,37.8166693 145.84,37.28 C145.186664,36.7433306 144.393338,36.475 143.46,36.475 C142.479995,36.475 141.680837,36.7316641 141.0625,37.245 C140.444164,37.7583359 140.053334,38.481662 139.89,39.415 L147.135,39.415 Z M139.715,43.09 C139.715,45.8200136 140.998321,47.185 143.565,47.185 C144.941674,47.185 145.979997,46.6250056 146.68,45.505 L152.805,45.505 C151.568327,49.6116872 148.476692,51.665 143.53,51.665 C142.013326,51.665 140.625006,51.4375023 139.365,50.9825 C138.104994,50.5274977 137.025838,49.8800042 136.1275,49.04 C135.229162,48.1999958 134.535003,47.1966725 134.045,46.03 C133.554998,44.8633275 133.31,43.5566739 133.31,42.11 C133.31,40.6166592 133.543331,39.2691727 134.01,38.0675 C134.476669,36.8658273 135.141662,35.8450042 136.005,35.005 C136.868338,34.1649958 137.912494,33.5175023 139.1375,33.0625 C140.362506,32.6074977 141.744992,32.38 143.285,32.38 C144.801674,32.38 146.166661,32.6074977 147.38,33.0625 C148.59334,33.5175023 149.619996,34.1766624 150.46,35.04 C151.300004,35.9033376 151.941665,36.9591604 152.385,38.2075 C152.828336,39.4558396 153.05,40.8616588 153.05,42.425 L153.05,43.09 L139.715,43.09 Z M154.855,33.045 L161.19,33.045 L161.19,35.32 C162.053338,34.2699947 162.928329,33.5641685 163.815,33.2025 C164.701671,32.8408315 165.739994,32.66 166.93,32.66 C168.190006,32.66 169.269162,32.8641646 170.1675,33.2725 C171.065838,33.6808354 171.829997,34.2583296 172.46,35.005 C172.973336,35.6116697 173.323333,36.2883296 173.51,37.035 C173.696668,37.7816704 173.79,38.6333286 173.79,39.59 L173.79,51 L167.455,51 L167.455,41.935 C167.455,41.0483289 167.390834,40.3308361 167.2625,39.7825 C167.134166,39.2341639 166.906668,38.7966683 166.58,38.47 C166.299999,38.1899986 165.985002,37.9916672 165.635,37.875 C165.284998,37.7583328 164.911669,37.7 164.515,37.7 C163.441661,37.7 162.61917,38.0208301 162.0475,38.6625 C161.475831,39.3041699 161.19,40.219994 161.19,41.41 L161.19,51 L154.855,51 L154.855,33.045 Z M185.8,51 L190.28,24.61 L197.07,24.61 L202.355,38.68 L207.605,24.61 L214.395,24.61 L218.875,51 L212.05,51 L209.775,35.81 L203.545,51 L200.815,51 L194.9,35.81 L192.625,51 L185.8,51 Z M233,39.415 C232.789999,38.5283289 232.358337,37.8166693 231.705,37.28 C231.051664,36.7433306 230.258338,36.475 229.325,36.475 C228.344995,36.475 227.545837,36.7316641 226.9275,37.245 C226.309164,37.7583359 225.918334,38.481662 225.755,39.415 L233,39.415 Z M225.58,43.09 C225.58,45.8200136 226.863321,47.185 229.43,47.185 C230.806674,47.185 231.844997,46.6250056 232.545,45.505 L238.67,45.505 C237.433327,49.6116872 234.341692,51.665 229.395,51.665 C227.878326,51.665 226.490007,51.4375023 225.23,50.9825 C223.969994,50.5274977 222.890838,49.8800042 221.9925,49.04 C221.094163,48.1999958 220.400003,47.1966725 219.91,46.03 C219.419998,44.8633275 219.175,43.5566739 219.175,42.11 C219.175,40.6166592 219.408331,39.2691727 219.875,38.0675 C220.341669,36.8658273 221.006663,35.8450042 221.87,35.005 C222.733338,34.1649958 223.777494,33.5175023 225.0025,33.0625 C226.227506,32.6074977 227.609993,32.38 229.15,32.38 C230.666675,32.38 232.031661,32.6074977 233.245,33.0625 C234.45834,33.5175023 235.484996,34.1766624 236.325,35.04 C237.165005,35.9033376 237.806665,36.9591604 238.25,38.2075 C238.693336,39.4558396 238.915,40.8616588 238.915,42.425 L238.915,43.09 L225.58,43.09 Z M246.6,41.97 C246.6,42.5533363 246.704999,43.0958308 246.915,43.5975 C247.125001,44.0991692 247.410832,44.5366648 247.7725,44.91 C248.134169,45.2833352 248.565831,45.574999 249.0675,45.785 C249.56917,45.995001 250.111664,46.1 250.695,46.1 C251.255003,46.1 251.785831,45.995001 252.2875,45.785 C252.78917,45.574999 253.220832,45.2833352 253.5825,44.91 C253.944169,44.5366648 254.235833,44.1050025 254.4575,43.615 C254.679168,43.1249975 254.79,42.6000028 254.79,42.04 C254.79,41.4799972 254.679168,40.9491692 254.4575,40.4475 C254.235833,39.9458308 253.944169,39.5083352 253.5825,39.135 C253.220832,38.7616648 252.78917,38.470001 252.2875,38.26 C251.785831,38.049999 251.255003,37.945 250.695,37.945 C250.134998,37.945 249.60417,38.049999 249.1025,38.26 C248.600831,38.470001 248.169169,38.7616648 247.8075,39.135 C247.445832,39.5083352 247.154168,39.9341643 246.9325,40.4125 C246.710833,40.8908357 246.6,41.4099972 246.6,41.97 Z M254.58,21.95 L260.95,21.95 L260.95,51 L254.58,51 L254.58,49.005 C253.22666,50.7083418 251.395012,51.56 249.085,51.56 C247.778327,51.56 246.576673,51.3150025 245.48,50.825 C244.383328,50.3349975 243.426671,49.6583376 242.61,48.795 C241.79333,47.9316623 241.157503,46.9166725 240.7025,45.75 C240.247498,44.5833275 240.02,43.3233401 240.02,41.97 C240.02,40.6866602 240.235832,39.4675058 240.6675,38.3125 C241.099169,37.1574942 241.711663,36.1483377 242.505,35.285 C243.298338,34.4216623 244.249162,33.7391692 245.3575,33.2375 C246.465839,32.7358308 247.684994,32.485 249.015,32.485 C251.255012,32.485 253.109993,33.2666588 254.58,34.83 L254.58,21.95 Z M269.79,33.045 L269.79,51 L263.455,51 L263.455,33.045 L269.79,33.045 Z M263.035,26.15 C263.035,25.6599975 263.128333,25.1991688 263.315,24.7675 C263.501668,24.3358312 263.758332,23.9566683 264.085,23.63 C264.411669,23.3033317 264.790832,23.0466676 265.2225,22.86 C265.654169,22.6733324 266.114998,22.58 266.605,22.58 C267.095003,22.58 267.555832,22.6733324 267.9875,22.86 C268.419169,23.0466676 268.798332,23.3033317 269.125,23.63 C269.451669,23.9566683 269.708333,24.3358312 269.895,24.7675 C270.081668,25.1991688 270.175,25.6599975 270.175,26.15 C270.175,26.6400024 270.081668,27.1008312 269.895,27.5325 C269.708333,27.9641688 269.451669,28.3433317 269.125,28.67 C268.798332,28.9966683 268.419169,29.2533324 267.9875,29.44 C267.555832,29.6266676 267.095003,29.72 266.605,29.72 C266.114998,29.72 265.654169,29.6266676 265.2225,29.44 C264.790832,29.2533324 264.411669,28.9966683 264.085,28.67 C263.758332,28.3433317 263.501668,27.9641688 263.315,27.5325 C263.128333,27.1008312 263.035,26.6400024 263.035,26.15 Z M278.21,41.97 C278.21,42.5533363 278.314999,43.0958308 278.525,43.5975 C278.735002,44.0991692 279.020832,44.5366648 279.3825,44.91 C279.744169,45.2833352 280.175831,45.574999 280.6775,45.785 C281.17917,45.995001 281.721664,46.1 282.305,46.1 C282.865003,46.1 283.395831,45.995001 283.8975,45.785 C284.39917,45.574999 284.830832,45.2833352 285.1925,44.91 C285.554169,44.5366648 285.845833,44.1050025 286.0675,43.615 C286.289168,43.1249975 286.4,42.6000028 286.4,42.04 C286.4,41.4799972 286.289168,40.9491692 286.0675,40.4475 C285.845833,39.9458308 285.554169,39.5083352 285.1925,39.135 C284.830832,38.7616648 284.39917,38.470001 283.8975,38.26 C283.395831,38.049999 282.865003,37.945 282.305,37.945 C281.721664,37.945 281.17917,38.049999 280.6775,38.26 C280.175831,38.470001 279.744169,38.7616648 279.3825,39.135 C279.020832,39.5083352 278.735002,39.9341643 278.525,40.4125 C278.314999,40.8908357 278.21,41.4099972 278.21,41.97 Z M286.19,33.045 L292.56,33.045 L292.56,51 L286.19,51 L286.19,49.005 C284.83666,50.7083418 283.005012,51.56 280.695,51.56 C279.388327,51.56 278.186673,51.3208357 277.09,50.8425 C275.993328,50.3641643 275.036671,49.6933377 274.22,48.83 C273.40333,47.9666624 272.767503,46.9516725 272.3125,45.785 C271.857498,44.6183275 271.63,43.3466735 271.63,41.97 C271.63,40.6866602 271.851665,39.4675058 272.295,38.3125 C272.738336,37.1574942 273.356663,36.1483377 274.15,35.285 C274.943338,34.4216623 275.888328,33.7391692 276.985,33.2375 C278.081673,32.7358308 279.294994,32.485 280.625,32.485 C282.865012,32.485 284.719993,33.2666588 286.19,34.83 L286.19,33.045 Z" id="Token-Media" fill="#4A4A4A"></path>
        </g>
    </g>
</svg>